<svg width="113" height="113" viewBox="0 0 113 113" fill="none" xmlns="http://www.w3.org/2000/svg">
<circle cx="56.5" cy="56.5" r="56.5" fill="url(#paint0_linear_49_6)"/>
<path d="M89.3333 46.0625V40.4375H83.6667V46.0625H78V51.6875H83.6667V57.3125H89.3333V51.6875H95V46.0625H89.3333Z" fill="white"/>
<path d="M49.6667 54.5C55.9283 54.5 61 49.4656 61 43.25C61 37.0344 55.9283 32 49.6667 32C43.405 32 38.3333 37.0344 38.3333 43.25C38.3333 49.4656 43.405 54.5 49.6667 54.5ZM49.6667 37.625C52.7833 37.625 55.3333 40.1562 55.3333 43.25C55.3333 46.3438 52.7833 48.875 49.6667 48.875C46.55 48.875 44 46.3438 44 43.25C44 40.1562 46.55 37.625 49.6667 37.625Z" fill="white"/>
<path d="M49.6667 57.3125C42.1017 57.3125 27 61.0812 27 68.5625V77H72.3333V68.5625C72.3333 61.0812 57.2317 57.3125 49.6667 57.3125ZM66.6667 71.375H32.6667V68.5906C33.2333 66.5656 42.0167 62.9375 49.6667 62.9375C57.3167 62.9375 66.1 66.5656 66.6667 68.5625V71.375Z" fill="white"/>
<path d="M62.445 32.1406C65.0517 35.1219 66.6667 39.0031 66.6667 43.25C66.6667 47.4969 65.0517 51.3781 62.445 54.3594C67.9983 53.6562 72.3333 48.9875 72.3333 43.25C72.3333 37.5125 67.9983 32.8438 62.445 32.1406Z" fill="white"/>
<path d="M73.835 59.6469C76.3567 61.9812 78 64.9062 78 68.5625V77H83.6667V68.5625C83.6667 64.4844 79.1617 61.5031 73.835 59.6469Z" fill="white"/>
<defs>
<linearGradient id="paint0_linear_49_6" x1="56.5" y1="0" x2="56.5" y2="113" gradientUnits="userSpaceOnUse">
<stop stop-color="#FC6837"/>
<stop offset="1" stop-color="#F94046"/>
</linearGradient>
</defs>
</svg>
