<svg width="24" height="24" viewBox="0 0 24 24" fill="none" xmlns="http://www.w3.org/2000/svg">
<path d="M14.0113 11.2995C13.2296 10.9167 12.4607 10.7891 12.4607 10.7891V9.00267C13.3706 9.13027 14.4086 9.64068 14.5367 9.89588L15.4466 8.10945C15.0622 7.85425 14.6649 7.72665 14.1523 7.47144C13.6397 7.21624 13.1142 7.08864 12.6016 7.08864V5.81262H11.6917V7.08864C10.5255 7.21624 9.48749 7.72665 8.97487 8.87507C8.71857 9.51307 8.71857 10.4063 8.84672 10.9167C9.10303 11.4271 9.5003 11.8099 10.1411 12.0651C10.7947 12.4479 11.5636 12.5755 11.8199 12.7031V14.3619C11.5636 14.3619 11.1663 14.2343 10.91 14.1067C10.5255 13.9791 9.87195 13.7239 9.48749 13.4687C9.35934 13.5963 9.23118 13.4687 9.23118 13.4687L8.32129 15.2552C9.35934 15.8932 10.5255 16.276 11.6917 16.4036V17.9348H12.6016V16.4036C12.9861 16.4036 13.3834 16.276 13.7678 16.1484C14.5496 15.8932 15.0622 15.5104 15.4466 14.8724C15.8311 14.2343 15.8311 13.2135 15.4466 12.5755C15.1903 12.0651 14.7931 11.5547 14.0241 11.2995H14.0113ZM11.8071 10.6615C11.5508 10.5339 11.2945 10.4063 11.1535 10.2787C11.0253 10.1511 10.8972 10.0235 10.8972 9.76828C10.8972 9.38547 11.1535 9.13027 11.8071 9.00267V10.6615ZM12.3325 14.4895V12.9583C12.5888 13.0859 12.8451 13.2135 13.1142 13.3411C13.2424 13.4687 13.3705 13.5963 13.3705 13.8515C13.3705 14.2343 12.9861 14.4895 12.3325 14.4895Z" fill="white"/>
<path d="M12 24C18.5528 24 24 18.5455 24 12C24 5.45455 18.5258 0 12 0C5.47416 0 0 5.45455 0 12C0 18.5455 5.44719 24 12 24ZM12 3.54545C16.6382 3.54545 20.4674 7.36364 20.4674 12C20.4674 16.6364 16.6382 20.4545 12 20.4545C7.3618 20.4545 3.53258 16.6364 3.53258 12C3.53258 7.36364 7.3618 3.54545 12 3.54545Z" fill="white"/>
</svg>
