<svg width="113" height="113" viewBox="0 0 113 113" fill="none" xmlns="http://www.w3.org/2000/svg">
<circle cx="56.5" cy="56.5" r="56.5" fill="url(#paint0_linear_29_1160)"/>
<path d="M74.3563 36.1749C70.2478 32.7554 65.1554 30.5166 59.5216 30V34.9449C63.7777 35.4123 67.6647 37.1098 70.8629 39.6683L74.3563 36.1749Z" fill="white"/>
<path d="M54.6014 34.9449V30C48.9677 30.492 43.8752 32.7554 39.7667 36.1749L43.2601 39.6683C46.4583 37.1098 50.3453 35.4123 54.6014 34.9449Z" fill="white"/>
<path d="M39.7913 43.1371L36.2979 39.6437C32.8784 43.7522 30.6396 48.8446 30.123 54.4784H35.0679C35.5353 50.2223 37.2328 46.3353 39.7913 43.1371Z" fill="white"/>
<path d="M79.0551 54.4784H84C83.4834 48.8446 81.2446 43.7522 77.8251 39.6437L74.3317 43.1371C76.8902 46.3353 78.5877 50.2223 79.0551 54.4784Z" fill="white"/>
<path d="M44.7608 56.9385L53.2237 60.7763L57.0615 69.2392L60.8993 60.7763L69.3622 56.9385L60.8993 53.1007L57.0615 44.6378L53.2237 53.1007L44.7608 56.9385Z" fill="white"/>
<path d="M57.0615 79.0797C49.4105 79.0797 42.6697 75.1681 38.7089 69.2392H44.7608V64.3189H30V79.0797H34.9203V72.4374C39.8159 79.4241 47.8852 84 57.0615 84C69.0424 84 79.2027 76.2014 82.7453 65.4014L77.9235 64.2943C74.8975 72.8802 66.7052 79.0797 57.0615 79.0797Z" fill="white"/>
<defs>
<linearGradient id="paint0_linear_29_1160" x1="56.5" y1="0" x2="56.5" y2="113" gradientUnits="userSpaceOnUse">
<stop stop-color="#FC6837"/>
<stop offset="1" stop-color="#F94046"/>
</linearGradient>
</defs>
</svg>
