<svg width="113" height="113" viewBox="0 0 113 113" fill="none" xmlns="http://www.w3.org/2000/svg">
<circle cx="56.5" cy="56.5" r="56.5" fill="url(#paint0_linear_29_1161)"/>
<path d="M81.8404 60.3633C81.8404 60.3379 81.8404 60.3125 81.8404 60.2617C84.9921 57.4658 87 53.3992 87 48.875C87 40.4621 80.1629 33.625 71.75 33.625C71.0892 33.625 70.4283 33.6758 69.7675 33.7775C67.1496 29.1262 62.1933 26 56.5 26C50.8067 26 45.8504 29.1262 43.2325 33.7775C42.5717 33.6758 41.9108 33.625 41.25 33.625C32.8371 33.625 26 40.4621 26 48.875C26 53.3992 28.0079 57.4658 31.1342 60.2617C31.1342 60.2871 31.1342 60.3125 31.1342 60.3633C28.0079 63.1592 26 67.2258 26 71.75C26 80.1629 32.8371 87 41.25 87C44.7829 87 48.0362 85.78 50.6287 83.7467C52.5096 84.2042 54.4667 84.4583 56.5 84.4583C58.5333 84.4583 60.4904 84.2042 62.3713 83.7467C64.9638 85.78 68.2171 87 71.75 87C80.1629 87 87 80.1629 87 71.75C87 67.2258 84.9921 63.1592 81.8404 60.3633ZM81.9167 48.875C81.9167 50.2729 81.6117 51.5946 81.1033 52.7892C79.6546 47.0704 76.2742 42.1396 71.6992 38.7083C71.7246 38.7083 71.7246 38.7083 71.75 38.7083C77.3671 38.7083 81.9167 43.2579 81.9167 48.875ZM56.5763 38.7083C63.515 38.7338 69.615 42.2413 73.275 47.5533C71.4704 49.0021 69.2083 49.8154 66.8446 49.8154C61.1258 49.8408 56.5 45.1896 56.5 39.4963C56.5 39.2421 56.5508 38.9879 56.5763 38.7083ZM56.5 31.0833C59.6771 31.0833 62.4983 32.5829 64.3792 34.8958C61.8883 34.0825 59.245 33.625 56.5 33.625C53.755 33.625 51.1117 34.0825 48.6208 34.8958C50.5017 32.5829 53.3229 31.0833 56.5 31.0833ZM41.25 38.7083C41.2754 38.7083 41.2754 38.7083 41.3008 38.7083C36.7258 42.1396 33.3454 47.0704 31.8967 52.7892C31.3883 51.5946 31.0833 50.2729 31.0833 48.875C31.0833 43.2579 35.6329 38.7083 41.25 38.7083ZM41.25 81.9167C35.6329 81.9167 31.0833 77.3671 31.0833 71.75C31.0833 69.9962 31.5663 68.395 32.3542 66.9717C34.3875 73.1733 38.7592 78.3329 44.4017 81.4083C43.4104 81.7387 42.3683 81.9167 41.25 81.9167ZM36.1667 59.0417C36.1667 49.5867 42.6733 41.6313 51.4167 39.3692C51.4167 39.42 51.4167 39.4454 51.4167 39.4963C51.4167 47.9854 58.33 54.8988 66.8192 54.8988C70.0217 54.8988 73.0463 53.9075 75.5879 52.1283C76.3758 54.3142 76.8333 56.6271 76.8333 59.0417C76.8333 70.2504 67.7087 79.375 56.5 79.375C45.2913 79.375 36.1667 70.2504 36.1667 59.0417ZM71.75 81.9167C70.6317 81.9167 69.5896 81.7387 68.5729 81.4083C74.2408 78.3329 78.5871 73.1733 80.6204 66.9717C81.4083 68.395 81.8913 70.0217 81.8913 71.75C81.9167 77.3671 77.3671 81.9167 71.75 81.9167Z" fill="white"/>
<path d="M48.875 64.7604C50.6297 64.7604 52.0521 63.338 52.0521 61.5833C52.0521 59.8287 50.6297 58.4062 48.875 58.4062C47.1203 58.4062 45.6979 59.8287 45.6979 61.5833C45.6979 63.338 47.1203 64.7604 48.875 64.7604Z" fill="white"/>
<path d="M64.125 64.7604C65.8797 64.7604 67.3021 63.338 67.3021 61.5833C67.3021 59.8287 65.8797 58.4062 64.125 58.4062C62.3703 58.4062 60.9479 59.8287 60.9479 61.5833C60.9479 63.338 62.3703 64.7604 64.125 64.7604Z" fill="white"/>
<defs>
<linearGradient id="paint0_linear_29_1161" x1="56.5" y1="0" x2="56.5" y2="113" gradientUnits="userSpaceOnUse">
<stop stop-color="#FC6837"/>
<stop offset="1" stop-color="#F94046"/>
</linearGradient>
</defs>
</svg>
