<svg width="441" height="68" viewBox="0 0 441 68" fill="none" xmlns="http://www.w3.org/2000/svg">
<path d="M440.064 23.3712V28.7603H424.266V23.3712H440.064ZM427.884 16.7763H435.586V41.6549C435.586 42.3931 435.676 42.9591 435.857 43.3528C436.037 43.7465 436.332 44.0254 436.742 44.1895C437.153 44.3371 437.678 44.4109 438.317 44.4109C438.777 44.4109 439.17 44.3945 439.498 44.3617C439.827 44.3289 440.13 44.2879 440.409 44.2387V49.8001C439.753 50.0133 439.056 50.1774 438.317 50.2922C437.579 50.4235 436.775 50.4891 435.906 50.4891C434.249 50.4891 432.813 50.2184 431.599 49.677C430.402 49.1356 429.483 48.2826 428.843 47.1178C428.203 45.9366 427.884 44.4027 427.884 42.5161V16.7763Z" fill="white"/>
<path d="M405.712 29.0556V49.9969H398.01V23.3712H405.244L405.712 29.0556ZM404.703 35.749L402.784 35.7982C402.784 33.7967 403.03 32.0004 403.522 30.4091C404.014 28.8177 404.711 27.4643 405.614 26.3488C406.532 25.2168 407.623 24.3555 408.886 23.7649C410.166 23.1743 411.577 22.8791 413.119 22.8791C414.366 22.8791 415.506 23.0595 416.539 23.4204C417.573 23.7813 418.459 24.3637 419.197 25.1676C419.952 25.955 420.526 27.005 420.92 28.3174C421.313 29.6134 421.51 31.2129 421.51 33.1159V49.9969H413.783V33.0913C413.783 31.9758 413.628 31.1145 413.316 30.5075C413.004 29.9005 412.545 29.474 411.938 29.2279C411.347 28.9818 410.625 28.8588 409.772 28.8588C408.87 28.8588 408.099 29.0392 407.459 29.4001C406.819 29.7446 406.294 30.2286 405.884 30.852C405.474 31.4754 405.171 32.2054 404.974 33.0421C404.793 33.8788 404.703 34.781 404.703 35.749Z" fill="white"/>
<path d="M383.368 50.4891C381.252 50.4891 379.357 50.1528 377.684 49.4801C376.01 48.8075 374.591 47.8806 373.426 46.6995C372.278 45.5019 371.4 44.1238 370.793 42.5653C370.186 41.0068 369.883 39.3417 369.883 37.5699V36.6348C369.883 34.6498 370.162 32.8206 370.719 31.1473C371.277 29.474 372.089 28.0221 373.156 26.7917C374.238 25.5449 375.567 24.5852 377.142 23.9126C378.717 23.2236 380.513 22.8791 382.531 22.8791C384.418 22.8791 386.099 23.1908 387.576 23.8141C389.052 24.4211 390.299 25.2988 391.316 26.4472C392.333 27.5792 393.104 28.949 393.629 30.5567C394.171 32.148 394.441 33.9362 394.441 35.9212V39.071H372.983V34.1248H386.911V33.5343C386.911 32.5992 386.739 31.7789 386.395 31.0735C386.067 30.368 385.574 29.8267 384.918 29.4493C384.278 29.0556 383.466 28.8588 382.482 28.8588C381.547 28.8588 380.768 29.0556 380.144 29.4493C379.521 29.8431 379.021 30.4009 378.643 31.1227C378.282 31.8281 378.02 32.6566 377.856 33.6081C377.692 34.5432 377.61 35.5521 377.61 36.6348V37.5699C377.61 38.6035 377.749 39.5468 378.028 40.3998C378.307 41.2529 378.717 41.983 379.258 42.5899C379.8 43.1969 380.456 43.6727 381.227 44.0172C381.998 44.3617 382.876 44.534 383.86 44.534C385.074 44.534 386.231 44.3043 387.33 43.8449C388.429 43.3692 389.38 42.631 390.184 41.6302L393.777 45.7397C393.236 46.5272 392.473 47.29 391.489 48.0283C390.521 48.7501 389.356 49.3407 387.994 49.8C386.633 50.2594 385.09 50.4891 383.368 50.4891Z" fill="white"/>
<path d="M358.711 23.3712H365.7V49.0372C365.7 51.4816 365.142 53.5568 364.026 55.263C362.927 56.9691 361.393 58.2652 359.425 59.151C357.456 60.0369 355.151 60.4799 352.51 60.4799C351.362 60.4799 350.164 60.324 348.917 60.0123C347.67 59.717 346.497 59.2659 345.398 58.6589C344.299 58.0683 343.38 57.3136 342.642 56.395L345.915 51.8671C346.67 52.7202 347.572 53.4092 348.622 53.9342C349.672 54.4755 350.869 54.7462 352.215 54.7462C353.445 54.7462 354.487 54.5248 355.34 54.0818C356.193 53.6389 356.841 52.9909 357.284 52.1378C357.743 51.2847 357.973 50.2512 357.973 49.0372V29.597L358.711 23.3712ZM340.92 37.004V36.4872C340.92 34.4694 341.166 32.632 341.658 30.975C342.15 29.3017 342.864 27.8662 343.799 26.6687C344.75 25.4547 345.89 24.5196 347.219 23.8634C348.564 23.2072 350.074 22.8791 351.747 22.8791C353.552 22.8791 355.044 23.2236 356.226 23.9126C357.407 24.5852 358.367 25.5367 359.105 26.7671C359.843 27.9811 360.425 29.4165 360.852 31.0735C361.278 32.714 361.623 34.494 361.885 36.4134V37.2993C361.623 39.1366 361.246 40.851 360.754 42.4423C360.261 44.0336 359.622 45.4363 358.834 46.6502C358.047 47.8478 357.062 48.7911 355.881 49.4801C354.716 50.1528 353.322 50.4891 351.698 50.4891C350.041 50.4891 348.548 50.1528 347.219 49.4801C345.89 48.8075 344.75 47.8642 343.799 46.6502C342.864 45.4363 342.15 44.009 341.658 42.3685C341.166 40.728 340.92 38.9398 340.92 37.004ZM348.597 36.4872V37.004C348.597 38.0539 348.696 39.03 348.893 39.9323C349.106 40.8346 349.417 41.6302 349.828 42.3193C350.254 43.0083 350.779 43.5497 351.403 43.9434C352.042 44.3207 352.789 44.5094 353.642 44.5094C354.889 44.5094 355.898 44.2469 356.669 43.7219C357.456 43.1805 358.03 42.4341 358.391 41.4826C358.768 40.5311 358.965 39.4237 358.982 38.1605V35.5767C358.982 34.5268 358.875 33.5835 358.662 32.7468C358.449 31.9101 358.129 31.2047 357.702 30.6305C357.292 30.0563 356.751 29.6216 356.078 29.3263C355.422 29.0146 354.626 28.8588 353.691 28.8588C352.854 28.8588 352.116 29.0556 351.476 29.4493C350.837 29.8267 350.303 30.3598 349.877 31.0489C349.45 31.7379 349.13 32.5499 348.917 33.485C348.704 34.4037 348.597 35.4044 348.597 36.4872Z" fill="white"/>
<path d="M323.103 20.9843L313.851 49.9969H305.287L318.551 14.1679H323.965L323.103 20.9843ZM330.781 49.9969L321.504 20.9843L320.544 14.1679H326.032L339.345 49.9969H330.781ZM330.387 36.6595V42.8606H311.71V36.6595H330.387Z" fill="white"/>
<path d="M296.109 42.5899C296.109 42.0978 295.953 41.663 295.641 41.2857C295.346 40.9084 294.804 40.5639 294.017 40.2522C293.246 39.9405 292.155 39.6288 290.744 39.3171C289.415 39.0382 288.177 38.6773 287.028 38.2344C285.88 37.775 284.879 37.2254 284.026 36.5856C283.173 35.9294 282.509 35.1584 282.033 34.2725C281.557 33.3702 281.319 32.3449 281.319 31.1965C281.319 30.081 281.557 29.0228 282.033 28.0221C282.525 27.0214 283.23 26.1355 284.149 25.3644C285.084 24.5934 286.216 23.9864 287.545 23.5435C288.89 23.1005 290.416 22.8791 292.122 22.8791C294.468 22.8791 296.494 23.2482 298.2 23.9864C299.906 24.7082 301.219 25.7254 302.138 27.0378C303.056 28.3338 303.516 29.8185 303.516 31.4918H295.838C295.838 30.8028 295.707 30.204 295.444 29.6954C295.182 29.1869 294.78 28.7931 294.238 28.5142C293.697 28.219 292.983 28.0713 292.098 28.0713C291.408 28.0713 290.801 28.1943 290.277 28.4404C289.768 28.6701 289.366 28.99 289.071 29.4001C288.792 29.8103 288.652 30.286 288.652 30.8274C288.652 31.2047 288.734 31.5492 288.898 31.8609C289.079 32.1562 289.35 32.4351 289.711 32.6976C290.088 32.9437 290.572 33.1651 291.162 33.362C291.769 33.5589 292.508 33.7475 293.377 33.928C295.231 34.2725 296.921 34.7564 298.446 35.3798C299.988 36.0032 301.219 36.8645 302.138 37.9637C303.073 39.0628 303.54 40.5147 303.54 42.3193C303.54 43.5004 303.269 44.5832 302.728 45.5675C302.203 46.5518 301.44 47.4131 300.44 48.1513C299.439 48.8896 298.241 49.4637 296.847 49.8739C295.452 50.284 293.877 50.4891 292.122 50.4891C289.612 50.4891 287.488 50.0379 285.749 49.1356C284.01 48.2333 282.697 47.1014 281.811 45.7397C280.942 44.3617 280.507 42.9509 280.507 41.5072H287.717C287.75 42.3931 287.972 43.1149 288.382 43.6727C288.808 44.2305 289.358 44.6406 290.03 44.9031C290.703 45.1492 291.458 45.2722 292.294 45.2722C293.131 45.2722 293.828 45.1574 294.386 44.9277C294.944 44.698 295.37 44.3863 295.666 43.9926C295.961 43.5825 296.109 43.1149 296.109 42.5899Z" fill="white"/>
<path d="M270.836 29.5724V49.9969H263.159V23.3712H270.369L270.836 29.5724ZM278.785 23.1743L278.662 30.3352C278.334 30.286 277.907 30.245 277.382 30.2122C276.857 30.163 276.406 30.1384 276.029 30.1384C275.044 30.1384 274.191 30.2614 273.469 30.5075C272.764 30.7372 272.173 31.0817 271.698 31.541C271.238 32.0004 270.894 32.5745 270.664 33.2636C270.434 33.9362 270.32 34.7154 270.32 35.6013L268.868 34.8877C268.868 33.1323 269.04 31.5246 269.384 30.0645C269.729 28.6045 270.229 27.3413 270.886 26.2749C271.542 25.1922 272.346 24.3555 273.297 23.7649C274.249 23.1743 275.331 22.8791 276.545 22.8791C276.939 22.8791 277.341 22.9037 277.751 22.9529C278.161 23.0021 278.506 23.0759 278.785 23.1743Z" fill="white"/>
<path d="M248.32 50.4891C246.204 50.4891 244.309 50.1528 242.636 49.4801C240.962 48.8075 239.543 47.8806 238.378 46.6995C237.23 45.5019 236.352 44.1238 235.745 42.5653C235.138 41.0068 234.835 39.3417 234.835 37.5699V36.6348C234.835 34.6498 235.114 32.8206 235.672 31.1473C236.229 29.474 237.041 28.0221 238.108 26.7917C239.191 25.5449 240.519 24.5852 242.094 23.9126C243.669 23.2236 245.466 22.8791 247.483 22.8791C249.37 22.8791 251.052 23.1908 252.528 23.8141C254.004 24.4211 255.251 25.2988 256.268 26.4472C257.286 27.5792 258.057 28.949 258.582 30.5567C259.123 32.148 259.394 33.9362 259.394 35.9212V39.071H237.936V34.1248H251.864V33.5343C251.864 32.5992 251.691 31.7789 251.347 31.0735C251.019 30.368 250.527 29.8267 249.87 29.4493C249.231 29.0556 248.418 28.8588 247.434 28.8588C246.499 28.8588 245.72 29.0556 245.096 29.4493C244.473 29.8431 243.973 30.4009 243.595 31.1227C243.234 31.8281 242.972 32.6566 242.808 33.6081C242.644 34.5432 242.562 35.5521 242.562 36.6348V37.5699C242.562 38.6035 242.701 39.5468 242.98 40.3998C243.259 41.2529 243.669 41.983 244.211 42.5899C244.752 43.1969 245.408 43.6727 246.179 44.0172C246.95 44.3617 247.828 44.534 248.812 44.534C250.026 44.534 251.183 44.3043 252.282 43.8449C253.381 43.3692 254.333 42.631 255.136 41.6302L258.729 45.7397C258.188 46.5272 257.425 47.29 256.441 48.0283C255.473 48.7501 254.308 49.3407 252.946 49.8C251.585 50.2594 250.043 50.4891 248.32 50.4891Z" fill="white"/>
<path d="M222.925 44.0418V12.1992H230.652V49.9969H223.712L222.925 44.0418ZM206.339 37.004V36.4872C206.339 34.4694 206.56 32.632 207.003 30.975C207.463 29.3017 208.127 27.8663 208.997 26.6687C209.883 25.4547 210.973 24.5196 212.269 23.8634C213.566 23.2072 215.05 22.8791 216.724 22.8791C218.266 22.8791 219.611 23.2236 220.759 23.9126C221.908 24.5852 222.884 25.5367 223.688 26.7671C224.508 27.9811 225.172 29.4165 225.681 31.0735C226.189 32.714 226.575 34.494 226.837 36.4134V37.2993C226.591 39.1367 226.206 40.851 225.681 42.4423C225.172 44.0336 224.508 45.4363 223.688 46.6503C222.884 47.8478 221.899 48.7911 220.735 49.4802C219.586 50.1528 218.233 50.4891 216.674 50.4891C215.001 50.4891 213.516 50.1528 212.22 49.4802C210.941 48.8075 209.866 47.8642 208.997 46.6503C208.127 45.4363 207.463 44.009 207.003 42.3685C206.56 40.728 206.339 38.9398 206.339 37.004ZM214.017 36.4872V37.004C214.017 38.0539 214.09 39.03 214.238 39.9323C214.402 40.8346 214.665 41.6303 215.026 42.3193C215.386 43.0083 215.862 43.5497 216.453 43.9434C217.043 44.3207 217.765 44.5094 218.618 44.5094C219.767 44.5094 220.71 44.2469 221.448 43.7219C222.186 43.1805 222.744 42.4341 223.122 41.4826C223.499 40.5311 223.696 39.4237 223.712 38.1605V35.5767C223.712 34.5268 223.605 33.5835 223.392 32.7468C223.179 31.9101 222.859 31.2047 222.433 30.6305C222.022 30.0564 221.506 29.6216 220.882 29.3263C220.259 29.0146 219.521 28.8588 218.668 28.8588C217.831 28.8588 217.117 29.0556 216.527 29.4494C215.936 29.8267 215.452 30.3598 215.075 31.0489C214.714 31.7379 214.443 32.5499 214.263 33.485C214.099 34.4037 214.017 35.4045 214.017 36.4872Z" fill="white"/>
<path d="M194.577 44.0418V12.1992H202.303V49.9969H195.364L194.577 44.0418ZM177.991 37.004V36.4872C177.991 34.4694 178.212 32.632 178.655 30.975C179.115 29.3017 179.779 27.8663 180.648 26.6687C181.534 25.4547 182.625 24.5196 183.921 23.8634C185.217 23.2072 186.702 22.8791 188.375 22.8791C189.917 22.8791 191.263 23.2236 192.411 23.9126C193.559 24.5852 194.536 25.5367 195.339 26.7671C196.16 27.9811 196.824 29.4165 197.333 31.0735C197.841 32.714 198.227 34.494 198.489 36.4134V37.2993C198.243 39.1367 197.858 40.851 197.333 42.4423C196.824 44.0336 196.16 45.4363 195.339 46.6503C194.536 47.8478 193.551 48.7911 192.386 49.4802C191.238 50.1528 189.885 50.4891 188.326 50.4891C186.653 50.4891 185.168 50.1528 183.872 49.4802C182.593 48.8075 181.518 47.8642 180.648 46.6503C179.779 45.4363 179.115 44.009 178.655 42.3685C178.212 40.728 177.991 38.9398 177.991 37.004ZM185.668 36.4872V37.004C185.668 38.0539 185.742 39.03 185.89 39.9323C186.054 40.8346 186.317 41.6303 186.677 42.3193C187.038 43.0083 187.514 43.5497 188.105 43.9434C188.695 44.3207 189.417 44.5094 190.27 44.5094C191.419 44.5094 192.362 44.2469 193.1 43.7219C193.838 43.1805 194.396 42.4341 194.773 41.4826C195.151 40.5311 195.348 39.4237 195.364 38.1605V35.5767C195.364 34.5268 195.257 33.5835 195.044 32.7468C194.831 31.9101 194.511 31.2047 194.084 30.6305C193.674 30.0564 193.157 29.6216 192.534 29.3263C191.911 29.0146 191.172 28.8588 190.319 28.8588C189.483 28.8588 188.769 29.0556 188.178 29.4494C187.588 29.8267 187.104 30.3598 186.727 31.0489C186.366 31.7379 186.095 32.5499 185.915 33.485C185.751 34.4037 185.668 35.4045 185.668 36.4872Z" fill="white"/>
<path d="M166.302 43.6481V32.23C166.302 31.4262 166.179 30.7372 165.933 30.163C165.687 29.5888 165.301 29.1376 164.776 28.8095C164.251 28.4814 163.571 28.3174 162.734 28.3174C162.029 28.3174 161.413 28.4404 160.888 28.6865C160.38 28.9326 159.986 29.2853 159.707 29.7446C159.445 30.204 159.313 30.77 159.313 31.4426H151.636C151.636 30.245 151.907 29.1294 152.448 28.0959C152.989 27.0624 153.76 26.1519 154.761 25.3644C155.778 24.577 156.992 23.97 158.403 23.5435C159.814 23.1005 161.397 22.8791 163.152 22.8791C165.236 22.8791 167.09 23.2318 168.714 23.9372C170.354 24.6262 171.65 25.6679 172.602 27.0624C173.553 28.4404 174.029 30.1794 174.029 32.2793V43.4266C174.029 45.0343 174.119 46.2975 174.3 47.2162C174.497 48.1185 174.775 48.906 175.136 49.5786V49.9969H167.385C167.024 49.2259 166.753 48.2744 166.573 47.1424C166.392 45.994 166.302 44.8293 166.302 43.6481ZM167.262 33.7557L167.311 37.9883H163.497C162.644 37.9883 161.906 38.0949 161.282 38.3082C160.675 38.5214 160.183 38.8167 159.806 39.1941C159.428 39.555 159.149 39.9815 158.969 40.4737C158.805 40.9494 158.723 41.4744 158.723 42.0486C158.723 42.5899 158.854 43.0821 159.117 43.525C159.379 43.9516 159.74 44.2879 160.199 44.534C160.659 44.78 161.192 44.9031 161.799 44.9031C162.8 44.9031 163.653 44.7062 164.358 44.3125C165.08 43.9188 165.638 43.443 166.031 42.8852C166.425 42.3111 166.622 41.7779 166.622 41.2857L168.468 44.4847C168.172 45.141 167.811 45.8218 167.385 46.5272C166.958 47.2162 166.417 47.8642 165.761 48.4712C165.105 49.0618 164.309 49.5458 163.374 49.9231C162.455 50.3004 161.348 50.4891 160.052 50.4891C158.378 50.4891 156.861 50.1528 155.499 49.4801C154.138 48.7911 153.047 47.8478 152.226 46.6502C151.423 45.4527 151.021 44.0746 151.021 42.5161C151.021 41.1217 151.275 39.8831 151.783 38.8003C152.292 37.7176 153.055 36.7989 154.072 36.0443C155.106 35.2896 156.402 34.7236 157.96 34.3463C159.519 33.9526 161.34 33.7557 163.423 33.7557H167.262Z" fill="white"/>
<path d="M131.359 12.1992V49.9969H123.681V12.1992H131.359ZM130.35 35.749L128.43 35.7982C128.43 33.928 128.66 32.2136 129.119 30.6551C129.595 29.0802 130.268 27.7104 131.137 26.5456C132.007 25.3809 133.049 24.4786 134.263 23.8388C135.493 23.199 136.846 22.8791 138.323 22.8791C139.635 22.8791 140.833 23.0677 141.916 23.445C142.998 23.8224 143.933 24.4212 144.721 25.2414C145.508 26.0617 146.115 27.1362 146.542 28.465C146.968 29.7939 147.182 31.4098 147.182 33.3128V49.9969H139.455V33.2636C139.455 32.1316 139.291 31.2457 138.963 30.6059C138.651 29.9661 138.192 29.515 137.585 29.2525C136.994 28.99 136.272 28.8588 135.419 28.8588C134.418 28.8588 133.59 29.0392 132.934 29.4001C132.277 29.7447 131.761 30.2286 131.383 30.852C131.006 31.4754 130.735 32.2054 130.571 33.0421C130.424 33.8788 130.35 34.7811 130.35 35.749Z" fill="white"/>
<path d="M111.525 40.5475C111.525 39.9405 111.435 39.3991 111.254 38.9234C111.074 38.4312 110.746 37.9801 110.27 37.57C109.794 37.1598 109.122 36.7497 108.252 36.3396C107.383 35.913 106.243 35.4783 104.832 35.0353C103.224 34.5104 101.69 33.9198 100.23 33.2636C98.7864 32.591 97.4986 31.8117 96.3667 30.9258C95.2347 30.0399 94.3406 29.0064 93.6844 27.8252C93.0446 26.6441 92.7247 25.266 92.7247 23.6911C92.7247 22.1654 93.061 20.7874 93.7336 19.557C94.4063 18.3266 95.3496 17.2767 96.5635 16.4072C97.7775 15.5213 99.2048 14.8487 100.845 14.3893C102.486 13.9136 104.29 13.6757 106.259 13.6757C108.884 13.6757 111.189 14.1433 113.174 15.0784C115.175 15.9971 116.734 17.2931 117.849 18.9664C118.965 20.6233 119.523 22.551 119.523 24.7493H111.55C111.55 23.7813 111.345 22.9283 110.935 22.19C110.541 21.4354 109.934 20.8448 109.114 20.4183C108.31 19.9917 107.301 19.7785 106.087 19.7785C104.906 19.7785 103.913 19.9589 103.109 20.3198C102.322 20.6644 101.723 21.1401 101.313 21.7471C100.919 22.3541 100.722 23.0185 100.722 23.7403C100.722 24.3145 100.87 24.8395 101.165 25.3152C101.477 25.7746 101.92 26.2093 102.494 26.6195C103.085 27.0132 103.806 27.3905 104.66 27.7514C105.513 28.1123 106.489 28.4568 107.588 28.7849C109.507 29.3919 111.205 30.0646 112.682 30.8028C114.175 31.541 115.43 32.3777 116.447 33.3128C117.464 34.2479 118.227 35.306 118.735 36.4872C119.26 37.6684 119.523 39.0054 119.523 40.4983C119.523 42.0896 119.211 43.5004 118.588 44.7308C117.981 45.9612 117.095 47.0112 115.93 47.8806C114.782 48.7337 113.404 49.3817 111.796 49.8247C110.188 50.2676 108.392 50.4891 106.407 50.4891C104.602 50.4891 102.822 50.2594 101.067 49.8001C99.3114 49.3243 97.7201 48.6025 96.2929 47.6346C94.882 46.6667 93.75 45.4363 92.897 43.9434C92.0603 42.4341 91.642 40.6459 91.642 38.5789H99.6641C99.6641 39.6616 99.82 40.5803 100.132 41.335C100.443 42.0732 100.886 42.672 101.461 43.1313C102.051 43.5907 102.765 43.9188 103.601 44.1156C104.438 44.3125 105.373 44.4109 106.407 44.4109C107.604 44.4109 108.572 44.2469 109.31 43.9188C110.065 43.5743 110.623 43.1067 110.984 42.5161C111.345 41.9255 111.525 41.2693 111.525 40.5475Z" fill="white"/>
<path d="M39.065 53.3886L28.1404 56.6066V48.3439L46.8343 42.8426C48.6448 42.3116 50 40.8566 50 39.922C50 38.9874 48.6448 38.3289 46.8343 38.8599L39.3547 41.0584C33.1682 42.8744 28.1404 39.7521 28.1404 34.102C28.1404 28.452 33.0234 22.5577 39.065 20.6354V0C36.2304 0.892111 33.6338 2.72944 31.7923 5.55446L1.77031 51.615C-3.60923 59.867 4.13938 70.4768 13.3674 67.4819L30.4888 61.9274C33.2924 61.014 36.1684 60.4405 39.065 60.1538V53.3886Z" fill="white"/>
<path d="M84.2297 51.6231L54.2077 5.55532C52.3662 2.72986 49.7696 0.902873 46.935 0V18.2487L57.8596 15.0302V23.2941L39.1657 28.7963C37.3552 29.3274 36 30.7827 36 31.7174C36 32.6521 37.3552 33.3107 39.1657 32.7796L46.6453 30.5808C52.8318 28.7645 57.8596 31.8873 57.8596 37.5383C57.8596 43.1892 52.9766 49.0844 46.935 51.007V60.1526C49.8316 60.4394 52.7076 61.013 55.5112 61.9265L72.6326 67.4818C81.8606 70.4772 89.6092 59.8658 84.2297 51.6125V51.6231Z" fill="#FC6F35"/>
</svg>
