<svg width="113" height="113" viewBox="0 0 113 113" fill="none" xmlns="http://www.w3.org/2000/svg">
<circle cx="56.5" cy="56.5" r="56.5" fill="url(#paint0_linear_49_8)"/>
<path d="M81 40.5789V45.6316H73.4211V53.2105H68.3684V45.6316H60.7895V40.5789H68.3684V33H73.4211V40.5789H81ZM73.4211 75.9474H38.0526V40.5789H53.2105V35.5263H38.0526C35.2737 35.5263 33 37.8 33 40.5789V75.9474C33 78.7263 35.2737 81 38.0526 81H73.4211C76.2 81 78.4737 78.7263 78.4737 75.9474V60.7895H73.4211V75.9474ZM63.3158 60.7895V70.8947H68.3684V60.7895H63.3158ZM53.2105 70.8947H58.2632V50.6842H53.2105V70.8947ZM48.1579 70.8947V55.7368H43.1053V70.8947H48.1579Z" fill="white"/>
<defs>
<linearGradient id="paint0_linear_49_8" x1="56.5" y1="0" x2="56.5" y2="113" gradientUnits="userSpaceOnUse">
<stop stop-color="#FC6837"/>
<stop offset="1" stop-color="#F94046"/>
</linearGradient>
</defs>
</svg>
