<svg width="50" height="50" viewBox="0 0 50 50" fill="none" xmlns="http://www.w3.org/2000/svg">
<circle cx="25" cy="25" r="25" fill="#002855"/>
<path d="M26.6 35.2632H23.4V40H26.6V35.2632Z" fill="white"/>
<path d="M13.8 22.6316H9V25.7895H13.8V22.6316Z" fill="white"/>
<path d="M41 22.6316H36.2V25.7895H41V22.6316Z" fill="white"/>
<path d="M33.4819 31.1488L31.2305 33.3706L34.6246 36.7201L36.876 34.4983L33.4819 31.1488Z" fill="white"/>
<path d="M16.5288 31.1377L13.1347 34.4871L15.3861 36.7089L18.7802 33.3595L16.5288 31.1377Z" fill="white"/>
<path d="M29.8 17.9263V10H20.2V17.9263C18.264 19.3789 17 21.6368 17 24.2105C17 28.5684 20.584 32.1053 25 32.1053C29.416 32.1053 33 28.5684 33 24.2105C33 21.6368 31.736 19.3789 29.8 17.9263ZM23.4 13.1579H26.6V16.4737C26.088 16.3789 25.544 16.3158 25 16.3158C24.456 16.3158 23.912 16.3789 23.4 16.4737V13.1579ZM25 28.9474C22.36 28.9474 20.2 26.8158 20.2 24.2105C20.2 21.6053 22.36 19.4737 25 19.4737C27.64 19.4737 29.8 21.6053 29.8 24.2105C29.8 26.8158 27.64 28.9474 25 28.9474Z" fill="white"/>
</svg>
