<svg version="1.2" xmlns="http://www.w3.org/2000/svg" viewBox="0 0 113 113" width="113" height="113">
	<defs>
		<linearGradient id="g1" x2="1" gradientUnits="userSpaceOnUse" gradientTransform="matrix(0,113,-113,0,56.5,0)">
			<stop offset="0" stop-color="#fc6837"/>
			<stop offset="1" stop-color="#f94046"/>
		</linearGradient>
	</defs>
	<style>
		.s0 { fill: url(#g1) } 
		.s1 { fill: #ffffff } 
	</style>
	<path fill-rule="evenodd" class="s0" d="m56.5 113c-31.24 0-56.5-25.26-56.5-56.5 0-31.24 25.26-56.5 56.5-56.5 31.24 0 56.5 25.26 56.5 56.5 0 31.24-25.26 56.5-56.5 56.5z"/>
	<path id="10+" class="s1" aria-label="10+"  d="m9.2 74v-4.2h8.1v-27.8l-8.8 1.8v-4.5l8.7-1.8h4.9v32.3h8.1v4.2zm41.7-33.2q-3.8 0-5.7 3.8-2 3.7-2 11.2 0 7.5 2 11.3 1.9 3.7 5.7 3.7 3.8 0 5.7-3.7 2-3.8 2-11.3 0-7.5-2-11.2-1.9-3.8-5.7-3.8zm0-3.9q6.1 0 9.3 4.8 3.3 4.9 3.3 14.1 0 9.2-3.3 14.1-3.2 4.8-9.3 4.8-6.1 0-9.4-4.8-3.2-4.9-3.2-14.1 0-9.2 3.2-14.1 3.3-4.8 9.4-4.8zm35 5.8h4.1v13.6h13.6v4.1h-13.6v13.6h-4.1v-13.6h-13.6v-4.1h13.6z"/>
</svg>