<svg width="113" height="113" viewBox="0 0 113 113" fill="none" xmlns="http://www.w3.org/2000/svg">
<circle cx="56.5" cy="56.5" r="56.5" fill="url(#paint0_linear_29_1159)"/>
<path d="M78.4211 44.1756V38.2222C78.4211 35.35 76.1 33 73.2632 33H37.1579C34.2953 33 32 35.35 32 38.2222V74.7778C32 77.65 34.2953 80 37.1579 80H73.2632C76.1 80 78.4211 77.65 78.4211 74.7778V68.8244C79.9426 67.9106 81 66.2656 81 64.3333V48.6667C81 46.7344 79.9426 45.0894 78.4211 44.1756ZM75.8421 48.6667V64.3333H57.7895V48.6667H75.8421ZM37.1579 74.7778V38.2222H73.2632V43.4444H57.7895C54.9526 43.4444 52.6316 45.7944 52.6316 48.6667V64.3333C52.6316 67.2056 54.9526 69.5556 57.7895 69.5556H73.2632V74.7778H37.1579Z" fill="white"/>
<path d="M65.5263 60.4167C67.6628 60.4167 69.3947 58.6631 69.3947 56.5C69.3947 54.3369 67.6628 52.5833 65.5263 52.5833C63.3898 52.5833 61.6579 54.3369 61.6579 56.5C61.6579 58.6631 63.3898 60.4167 65.5263 60.4167Z" fill="white"/>
<defs>
<linearGradient id="paint0_linear_29_1159" x1="56.5" y1="0" x2="56.5" y2="113" gradientUnits="userSpaceOnUse">
<stop stop-color="#FC6837"/>
<stop offset="1" stop-color="#F94046"/>
</linearGradient>
</defs>
</svg>
